# xmcd
#
# Track frame offsets: 
#        150
#        16393
#        30675
#        47306
#        66760
#        83631
#        101200
#        115901
#        132585
#        151645
#        169879
#
# Disc length: 2534 seconds
#
# Revision: 0
# Processed by: cddbd v1.5.2PL0 Copyright (c) Steve Scherf et al.
# Submitted via: ExactAudioCopyFreeDBPlugin 1.0
#
DISCID=8509e40b
DTITLE=Desert Rats - Hillbilly Band
DYEAR=2015
DGENRE=Country
TTITLE0=Home
TTITLE1=What my Baby sees in me
TTITLE2=Hillbilly Band
TTITLE3=Anymore
TTITLE4=Better Man
TTITLE5=Mamm's going out for nothing
TTITLE6=She is the one
TTITLE7=Start it all over
TTITLE8=Gone digital
TTITLE9=I ain't got a clue
TTITLE10=This time
EXTD=
EXTT0=
EXTT1=
EXTT2=
EXTT3=
EXTT4=
EXTT5=
EXTT6=
EXTT7=
EXTT8=
EXTT9=
EXTT10=
PLAYORDER=
